<svg xmlns="http://www.w3.org/2000/svg" width="22" height="20" viewBox="0 0 22 20">
    <path fill="none" fill-rule="evenodd" stroke="#000" stroke-width="1.2" d="M10.965 19l-.704-.57c-4.2-3.393-6.738-5.439-8.181-8.11C1.017 8.358.732 6.423 1.255 4.726a5.276 5.276 0 0 1 2.783-3.219A5.138 5.138 0 0 1 6.295 1c1.904 0 3.697.994 4.67 2.536C11.938 1.994 13.733 1 15.635 1c.8 0 1.558.17 2.256.507a5.279 5.279 0 0 1 2.784 3.22c.523 1.697.237 3.632-.825 5.592-1.444 2.673-3.983 4.723-8.19 8.119l-.695.562z"/>
</svg>
