<svg xmlns="http://www.w3.org/2000/svg" width="375" height="20" viewBox="0 0 375 20">
    <g fill="#030303" fill-rule="evenodd">
        <path d="M346.494 6.5h19.512c.82 0 1.494.674 1.494 1.505v6.49c0 .837-.669 1.505-1.494 1.505h-19.512c-.82 0-1.494-.674-1.494-1.505v-6.49c0-.837.669-1.505 1.494-1.505zM368 9.5h.75c.417 0 .75.332.75.742v2.016a.748.748 0 0 1-.75.742H368V9.5zM346.508 7c-.557 0-1.008.457-1.008 1.008v6.484c0 .557.45 1.008 1.008 1.008h19.484c.557 0 1.008-.457 1.008-1.008V8.008c0-.557-.45-1.008-1.008-1.008h-19.484zm-.001.5h19.486c.277 0 .507.22.507.492v6.516a.497.497 0 0 1-.507.492h-19.486a.502.502 0 0 1-.507-.492V7.992c0-.276.227-.492.507-.492z"/>
        <text font-family=".SFNSText, .SF NS Text" font-size="12">
            <tspan x="311.854" y="15.5">100%</tspan>
        </text>
        <text font-family=".SFNSText, .SF NS Text" font-size="12">
            <tspan x="164.256" y="15.5">9:41 AM</tspan>
        </text>
        <path d="M54.144 13.439L52.023 15.5l-2.163-2.095a2.857 2.857 0 0 1 2.128-.936c.864 0 1.638.376 2.156.97zm2.18-2.118l-1.09 1.058a4.417 4.417 0 0 0-3.246-1.402c-1.274 0-2.42.528-3.219 1.372l-1.09-1.056a5.979 5.979 0 0 1 4.309-1.809c1.713 0 3.257.708 4.335 1.837zM58.5 9.207l-1.088 1.057a7.539 7.539 0 0 0-5.424-2.272 7.54 7.54 0 0 0-5.398 2.245L45.5 9.182A9.1 9.1 0 0 1 51.988 6.5 9.1 9.1 0 0 1 58.5 9.207zM9.25 14a2.75 2.75 0 1 1 0-5.5 2.75 2.75 0 0 1 0 5.5zm7 0a2.75 2.75 0 1 1 0-5.5 2.75 2.75 0 0 1 0 5.5zm7 0a2.75 2.75 0 1 1 0-5.5 2.75 2.75 0 0 1 0 5.5zm7 0a2.75 2.75 0 1 1 0-5.5 2.75 2.75 0 0 1 0 5.5zm7 0a2.75 2.75 0 1 1 0-5.5 2.75 2.75 0 0 1 0 5.5z"/>
    </g>
</svg>
